<?xml version="1.0" ?><!DOCTYPE svg  PUBLIC '-//W3C//DTD SVG 1.1//EN'  'http://www.w3.org/Graphics/SVG/1.1/DTD/svg11.dtd'><svg enable-background="new 0 0 128 128" height="128px" id="Слой_1" version="1.1" viewBox="0 0 128 128" width="128px" xml:space="preserve" xmlns="http://www.w3.org/2000/svg" xmlns:xlink="http://www.w3.org/1999/xlink"><g><path d="M17.375,47.3803711v9.2392578H0v9.9995117h17.375v9.2402344l10.3125-7.1191406L38,61.6196289    l-10.3125-7.1191406L17.375,47.3803711z M46,71.6191406c-2.4853516,0-4.5,2.015625-4.5,4.5c0,2.4863281,2.0146484,4.5,4.5,4.5    s4.5-2.0136719,4.5-4.5C50.5,73.6347656,48.4853516,71.6191406,46,71.6191406z M64,71.6191406c-2.4853516,0-4.5,2.015625-4.5,4.5    c0,2.4863281,2.0146484,4.5,4.5,4.5s4.5-2.0136719,4.5-4.5C68.5,73.6347656,66.4853516,71.6191406,64,71.6191406z M82,71.6191406    c-2.4853516,0-4.5,2.015625-4.5,4.5c0,2.4863281,2.0146484,4.5,4.5,4.5s4.5-2.0136719,4.5-4.5    C86.5,73.6347656,84.4853516,71.6191406,82,71.6191406z M110.625,56.6196289v-9.2392578l-10.3125,7.1191406L90,61.6196289    l10.3125,7.1186523l10.3125,7.1210938v-9.2402344H128v-9.9995117H110.625z" fill="#CCC"/></g></svg>